<?xml version="1.0" standalone="no"?>
<!DOCTYPE svg PUBLIC "-//W3C//DTD SVG 20010904//EN"
 "http://www.w3.org/TR/2001/REC-SVG-20010904/DTD/svg10.dtd">
<svg version="1.0" xmlns="http://www.w3.org/2000/svg"
 width="512.000000pt" height="512.000000pt" viewBox="0 0 512.000000 512.000000"
 preserveAspectRatio="xMidYMid meet">
<metadata>
Created by potrace 1.16, written by Peter Selinger 2001-2019
</metadata>
<g transform="translate(0.000000,512.000000) scale(0.100000,-0.100000)"
fill="#000000" stroke="none">
<path d="M960 5097 c0 -5 -4 -5 -10 -2 -5 3 -19 -3 -31 -14 -12 -11 -26 -18
-30 -15 -4 2 -11 -1 -15 -7 -4 -8 -3 -9 4 -5 7 4 12 5 12 3 0 -2 -27 -23 -61
-48 -108 -78 -104 -66 -103 -349 1 -135 9 -414 19 -620 9 -206 20 -451 24
-543 6 -129 11 -171 22 -178 8 -5 10 -9 4 -9 -6 0 -11 -45 -12 -110 -1 -73 2
-110 9 -110 8 0 9 -36 4 -115 -4 -84 -3 -115 5 -115 9 0 10 -31 6 -115 -4 -71
-3 -115 3 -115 6 0 10 -42 10 -97 0 -54 7 -143 15 -198 9 -61 15 -181 15 -305
0 -175 13 -542 35 -990 3 -63 10 -212 15 -330 5 -118 13 -276 16 -350 4 -74 7
-144 6 -155 -2 -52 12 -88 47 -129 22 -25 42 -42 45 -39 3 4 6 2 6 -3 0 -14
300 -15 300 -1 0 7 4 6 10 -3 9 -13 11 -13 19 -1 8 12 37 13 171 7 110 -4 160
-3 155 4 -3 5 -2 10 4 10 5 0 12 -6 14 -12 4 -10 6 -10 6 -1 1 10 40 13 159
12 87 0 165 2 172 5 8 2 137 7 285 11 149 3 396 10 550 15 154 5 384 12 510
16 127 3 327 9 445 13 162 4 227 3 265 -7 60 -16 132 -9 194 19 48 21 98 70
107 104 4 18 -1 139 -12 285 -2 30 -4 77 -4 104 1 26 -5 54 -11 62 -7 9 -9 31
-6 59 4 28 2 47 -4 51 -7 4 -9 25 -6 55 4 30 2 51 -5 55 -6 4 -8 25 -4 55 5
35 3 49 -5 49 -8 0 -10 16 -5 54 4 36 2 57 -5 62 -8 4 -9 25 -5 60 3 29 2 54
-2 56 -7 2 -43 383 -97 1003 -3 28 -7 77 -10 110 -3 33 -8 83 -10 110 -8 80
-16 166 -21 215 -5 55 -12 134 -20 220 -3 36 -8 83 -10 105 -2 22 -7 69 -9
105 -3 36 -8 90 -11 120 -3 30 -6 78 -7 105 -1 28 -6 56 -10 62 -4 7 -8 32 -8
55 0 90 -5 154 -13 171 -5 10 -6 35 -2 57 4 24 2 41 -5 46 -8 4 -9 25 -5 60 4
38 3 54 -5 54 -8 0 -10 17 -6 55 3 30 2 55 -2 55 -5 0 -11 39 -15 88 -3 48
-13 157 -21 242 -8 85 -22 236 -30 335 -9 99 -18 200 -20 225 -2 25 -7 81 -10
125 -7 89 -22 134 -45 137 -8 0 -321 3 -695 4 -1639 8 -2265 8 -2265 1z m417
-188 c-160 -23 -258 -127 -258 -274 0 -153 103 -263 255 -273 59 -4 81 0 124
18 64 28 137 105 154 163 40 141 -16 270 -147 340 -16 9 -25 16 -19 17 6 0 38
-17 70 -38 96 -62 148 -162 146 -277 -1 -112 -63 -207 -169 -260 -49 -25 -70
-29 -138 -29 -65 0 -90 4 -136 26 -78 36 -133 89 -170 164 -29 59 -31 69 -27
146 5 96 25 143 85 199 67 64 127 87 223 87 l65 0 -58 -9z m122 -50 c49 -21
86 -52 103 -83 7 -13 -5 -6 -31 15 -48 42 -98 59 -169 59 -56 0 -77 -14 -36
-24 61 -16 104 -71 104 -133 0 -42 -32 -94 -71 -115 -84 -45 -173 -3 -204 97
-10 34 -25 -4 -25 -65 0 -59 23 -120 59 -157 12 -13 18 -23 13 -23 -16 0 -61
55 -81 100 -23 50 -28 141 -10 187 17 47 60 102 97 125 81 50 164 56 251 17z
m1135 -2012 c70 -32 140 -103 174 -175 23 -49 27 -70 27 -148 0 -83 -3 -95
-34 -158 -40 -77 -91 -126 -171 -165 -47 -22 -68 -26 -145 -25 -68 0 -101 5
-135 21 -256 117 -293 451 -69 616 99 73 239 86 353 34z m-654 -464 c30 -122
141 -260 256 -320 285 -150 630 -21 744 278 11 30 20 62 20 72 0 16 24 17 370
17 l370 0 0 -24 c0 -13 -7 -63 -15 -112 -79 -459 -428 -847 -881 -978 -126
-37 -309 -59 -414 -51 -437 35 -795 251 -1012 612 -85 139 -157 348 -171 496
l-6 57 364 0 363 0 12 -47z"/>
<path d="M2412 2689 c-120 -60 -135 -232 -27 -315 30 -22 50 -29 99 -32 73 -4
115 15 160 71 55 69 45 190 -21 249 -54 50 -143 61 -211 27z"/>
</g>
</svg>
